<?xml version="1.0" encoding="utf-8" ?>
<svg baseProfile="full" height="300mm" version="1.1" viewBox="0,0,200,300" width="200mm" xmlns="http://www.w3.org/2000/svg" xmlns:ev="http://www.w3.org/2001/xml-events" xmlns:xlink="http://www.w3.org/1999/xlink"><defs /><rect fill="#222222" height="300" width="200" x="0" y="0" /><text fill="#FFFFFF" style="font-size:12px; font-family:Arial; font-weight:bold;" x="10" y="20">Over 1km Runs</text><text fill="#FFFFFF" style="font-size:4px; font-family:Arial" x="10" y="280">ATHLETE</text><text fill="#FFFFFF" style="font-size:9px; font-family:Arial" x="10" y="290">BarryYangi</text><text fill="#FFFFFF" style="font-size:4px; font-family:Arial" x="120" y="280">STATISTICS</text><text fill="#FFFFFF" style="font-size:3px; font-family:Arial" x="120" y="285">Number: 2</text><text fill="#FFFFFF" style="font-size:3px; font-family:Arial" x="120" y="290">Weekly: 2.0</text><text fill="#FFFFFF" style="font-size:3px; font-family:Arial" x="141" y="285">Total: 3.0 km</text><text fill="#FFFFFF" style="font-size:3px; font-family:Arial" x="141" y="290">Avg: 1.5 km</text><text fill="#FFFFFF" style="font-size:3px; font-family:Arial" x="167" y="285">Min: 1.3 km</text><text fill="#FFFFFF" style="font-size:3px; font-family:Arial" x="167" y="290">Max: 1.7 km</text><polyline fill="none" points="65.44534567184746,82.21865134313703 65.44534567184746,85.04834958771244 65.44534567184746,87.87804608978331 65.03882032632828,90.23612517537549 64.22576963715255,95.42389490595087 64.22576963715255,97.31035517435521 63.41271894611418,99.66842941800132 63.00619360245764,102.96973132854328 62.59966825507581,109.10071429889649 62.19314291141927,110.51555536221713 62.59966825507581,113.3452361789532 63.41271894611418,121.36265569692478 62.59966825507581,124.19232983421534 63.81924429163337,129.38006122643128 67.47797239758074,133.62456437200308 74.79542860761285,138.34067437937483 77.64110602252185,139.28389580035582 80.08025809377432,140.69872756721452 82.51941016316414,141.64194850577042 86.99118895828724,142.11355890100822 91.46296775341034,141.17033806070685 93.08906913548708,140.22711702715605 96.74779723957181,138.81228511454538 97.96737327612936,137.8690635971725 99.18694931082428,136.45423095766455 101.21957603655756,133.62456437200308 103.25220276042819,130.32328448677436 103.65872810594738,126.07877829112113 103.65872810594738,123.72071759961545 103.65872810594738,121.83426817320287 104.06525344960392,119.0045925853774 103.65872810594738,117.1181412236765 103.65872810594738,115.23168908804655 103.65872810594738,113.3452361789532 103.65872810594738,109.10071429889649 104.06525344960392,106.7426448953338 104.06525344960392,104.38457427918911 104.06525344960392,102.49811691557989 104.06525344960392,97.31035517435521 104.47177879698575,94.95227971859276 104.47177879698575,93.06581848114729 104.47177879698575,90.70774084655568 64.63229498267174,124.19232983421534 64.63229498267174,126.55039028357714 64.63229498267174,128.43683777190745 67.07144705019891,130.32328448677436 70.32364981248975,134.5677867596969 71.54322584718466,136.92584188561887 74.79542860761285,140.22711702715605 76.42152998782694,141.64194850577042 80.4867834392935,143.05677954712883 84.14551154524088,144.0 88.2107649948448,143.52838979754597 93.49559448100626,139.28389580035582 95.52822120673954,138.34067437937483 100.00000000186265,135.5110089564696 101.62610138207674,132.68134178919718 102.43915207125247,131.26650755200535 103.25220276042819,129.38006122643128 103.65872810594738,125.60716624977067 103.65872810594738,123.72071759961545 104.06525344960392,120.89104317175224 103.65872810594738,119.0045925853774 103.65872810594738,117.1181412236765 103.65872810594738,114.76007593376562 103.65872810594738,112.87362283002585 103.65872810594738,108.62910051550716 103.25220276042819,106.7426448953338 104.06525344960392,104.85618849983439 104.06525344960392,102.96973132854328 104.06525344960392,101.08327338565141 104.06525344960392,99.19681466603652 104.06525344960392,97.31035517435521 104.47177879698575,93.06581848114729 104.47177879698575,90.23612517537549 103.65872810594738,87.87804608978331 103.65872810594738,85.99158194847405 102.84567741677165,83.63350068219006 100.40652534551919,79.86056814249605 99.18694931082428,77.50248373160139 95.52822120673954,74.2011635210365 93.08906913548708,72.78631127765402 90.64991706423461,71.8430762058124 86.17813826911151,70.89984093979001 84.14551154524088,70.89984093979001 82.11288481764495,71.37145859748125 78.45415671356022,72.78631127765402 76.01500464230776,73.2579287411645 73.98237791657448,74.2011635210365 69.51059912145138,77.03086670301855 68.29102308675647,77.97410071035847 65.851871015504,81.27541820798069 65.03882032632828,85.04834958771244 64.63229498267174,86.93481411412358 65.44534567184746,88.82127786893398 65.851871015504,90.70774084655568 65.851871015504,92.59420305117965 66.66492170840502,97.78197011956945 66.66492170840502,99.66842941800132 66.66492170840502,101.55488794483244 66.66492170840502,103.44134569587186 66.25839636102319,107.68587280157954 66.25839636102319,110.0439417231828 66.25839636102319,111.9303959873505 65.44534567184746,113.81684947898611 65.03882032632828,116.17491525271907 64.63229498267174,118.0613670013845 64.22576963715255,122.30588060291484 64.22576963715255,124.19232983421534 65.44534567184746,128.43683777190745 67.47797239758074,133.62456437200308 69.10407377779484,135.5110089564696 71.54322584718466,138.81228511454538 73.16932722739875,140.22711702715605 74.79542860761285,141.17033806070685 78.45415671356022,143.05677954712883 80.4867834392935,143.52838979754597 84.55203688889742,143.52838979754597 86.5846636146307,143.05677954712883 89.02381568402052,143.05677954712883 92.6825437899679,142.11355890100822 95.93474655039608,140.22711702715605 97.154322585091,138.34067437937483 98.3738986197859,136.92584188561887 99.59347465448081,135.03939788322896 100.81305069103837,134.09617558959872 102.84567741677165,130.7948960433714 103.65872810594738,127.49361412459984 103.65872810594738,123.72071759961545 103.65872810594738,121.36265569692478 103.65872810594738,119.47620530519634 104.06525344960392,117.58975413721055 104.06525344960392,115.23168908804655 104.06525344960392,113.3452361789532 104.06525344960392,109.10071429889649 104.06525344960392,106.7426448953338 103.65872810594738,104.85618849983439 104.06525344960392,102.96973132854328 104.06525344960392,100.61165877850726 104.06525344960392,98.72519986564294 104.06525344960392,96.83874017884955 104.06525344960392,92.59420305117965 104.06525344960392,90.23612517537549 102.43915207125247,85.99158194847405 102.43915207125247,84.10511703323573 101.62610138207674,82.21865134313703 101.21957603655756,80.33218487910926 98.78042396530509,76.55924962786958 97.56084793061018,75.1443981085904 96.34127189591527,73.2579287411645 92.6825437899679,70.89984093979001 90.64991706423461,70.42822323692963 88.2107649948448,69.95660548238084 84.14551154524088,69.01336982985958 82.11288481764495,69.01336982985958 80.08025809377432,69.01336982985958 78.04763136804104,69.4849876803346 74.38890326209366,71.37145859748125 72.35627653822303,72.78631127765402 71.13670050352812,74.67278084019199 69.91712446697056,76.55924962786958 68.29102308675647,77.97410071035847 66.66492170840502,81.74703480023891 66.25839636102319,84.10511703323573 66.25839636102319,85.99158194847405 66.25839636102319,88.34966200217605 66.25839636102319,90.23612517537549 66.66492170840502,94.95227971859276 66.66492170840502,97.78197011956945 67.47797239758074,100.61165877850726 67.88449774123728,102.96973132854328 67.88449774123728,104.85618849983439 68.29102308675647,106.7426448953338 68.29102308675647,110.98716895282269 67.88449774123728,113.3452361789532 67.47797239758074,115.23168908804655 67.07144705019891,117.58975413721055 67.07144705019891,119.47620530519634 65.03882032632828,123.72071759961545 63.81924429163337,127.49361412459984 65.851871015504,131.26650755200535 66.66492170840502,132.68134178919718 67.88449774123728,134.5677867596969 71.13670050352812,137.8690635971725 73.16932722739875,139.28389580035582 76.82805533334613,141.17033806070685 78.86068205721676,142.11355890100822 80.4867834392935,142.58516924781725 84.14551154524088,143.52838979754597 86.17813826911151,143.52838979754597 88.2107649948448,143.52838979754597 91.86949310079217,143.05677954712883 95.12169585935771,141.17033806070685 96.34127189591527,140.22711702715605 97.96737327612936,138.81228511454538 100.81305069103837,136.45423095766455 102.03262672573328,133.62456437200308 102.03262672573328,131.73811901314184 102.43915207125247,129.85167288128287 102.84567741677165,127.96522597176954 103.65872810594738,126.55039028357714 103.65872810594738,124.66394202038646 104.06525344960392,122.77749298419803 104.06525344960392,119.0045925853774 103.65872810594738,117.58975413721055 103.65872810594738,115.70330219529569 104.06525344960392,114.28846273105592 103.65872810594738,112.40200943360105 103.65872810594738,110.51555536221713 103.65872810594738,108.62910051550716 103.65872810594738,105.32780267111957 103.65872810594738,103.91296001151204 103.65872810594738,102.02650245465338 103.65872810594738,100.61165877850726 103.65872810594738,98.72519986564294 104.06525344960392,97.31035517435521 104.06525344960392,95.89551004488021 104.47177879698575,92.12258757371455 104.47177879698575,90.23612517537549 104.06525344960392,88.82127786893398 103.65872810594738,86.93481411412358 103.25220276042819,85.04834958771244 103.25220276042819,81.74703480023891 102.43915207125247,80.33218487910926 102.43915207125247,78.4457176416181 102.03262672573328,76.55924962786958 102.03262672573328,75.1443981085904 100.81305069103837,71.8430762058124 102.03262672573328,69.01336982985958 105.28482948616147,67.59851598739624 106.91093086637557,68.0701339840889 108.5370322484523,68.0701339840889 111.7892350088805,67.12689794367179 113.41533638723195,66.18366171000525 114.63491242192686,65.24042528308928 116.2610138040036,64.76880699628964 117.4805898386985,63.82557027973235 120.32626725174487,63.35395184857771 121.54584328830242,62.41071484098211 123.17194466851652,62.41071484098211 126.01762208342552,62.882333368528634 129.2698248438537,63.35395184857771 132.52202760614455,62.41071484098211 135.3677050191909,59.10938378702849 136.18075571209192,56.2796695693396 136.18075571209192,54.39319245470688 136.58728105388582,52.50671456521377 137.4003317449242,51.0918556409888 137.4003317449242,49.205376396887004 137.4003317449242,47.31889637792483 137.80685709044337,45.90403585555032 137.4003317449242,42.6026929426007 136.18075571209192,39.30134765710682 135.3677050191909,37.41486357199028 134.96117967367172,36.0" stroke="#4dd2ff" stroke-linecap="round" stroke-linejoin="round" stroke-width="0.5"><title>2023-03-08 1.7km</title></polyline><polyline fill="none" points="93.3503836505115,159.35406412091106 88.72456358000636,161.36650176486 84.09874350950122,164.0497509953566 80.62937845662236,169.41624615201727 76.00355838984251,178.8076020698063 75.42533088102937,192.8946106452495 74.84710337221622,197.59027342265472 76.58178589493036,207.652396582067 77.1600134037435,215.70208395831287 79.47292344272137,223.75176141783595 84.09874350950122,232.47223414340988 84.67697102203965,236.4970637857914 85.2551985271275,251.2547512673773 90.45924610644579,257.29197744838893 93.3503836505115,259.9751872951165 102.60202379152179,263.329198054038 106.64961635321379,262.65839604008943 110.11898140236735,263.329198054038 112.43189143761992,264.0 117.63593901693821,261.98759395675734 119.37062154337764,261.3167918054387 121.10530406981707,259.9751872951165 123.99644161388278,257.29197744838893 125.73112414032221,254.60876649944112 127.46580666676164,253.26716061402112 128.04403417557478,250.58394801151007 129.7787167020142,244.54671563440934 129.7787167020142,241.19269523443654 130.35694421082735,237.83867311710492 129.7787167020142,229.78901300672442 129.7787167020142,226.4349850350991 129.20048919320107,222.41014919662848 129.20048919320107,218.38531087851152 128.62226168438792,216.37289079185575 128.62226168438792,212.34804875589907 128.62226168438792,208.99401183379814 128.04403417557478,206.31078105792403 127.46580666676164,203.62754917843267 128.04403417557478,200.94431619532406 126.30935164913535,193.56541981874034 125.73112414032221,187.52813476789743 126.30935164913535,180.1492232424207 126.30935164913535,177.46598062245175 126.8875791579485,175.45354793407023 123.99644161388278,171.42868069838732 120.52707656100392,169.41624615201727 117.63593901693821,167.40381098538637 110.6972089111805,161.36650176486 107.80607137084007,159.35406412091106 100.28911375254393,156.67081296257675 96.81974870339036,156.0 90.45924610644579,158.01243867818266 85.2551985271275,162.70812651747838 84.09874350950122,164.7205631295219 78.89469593018293,172.09949207678437 77.73824091628194,172.7703033857979 77.1600134037435,177.46598062245175 76.00355838984251,180.8200337253511 72.53419333696365,186.18651510961354 69.64305579289794,192.8946106452495 71.37773831933737,200.94431619532406 74.26887586340308,208.32320424309 76.00355838984251,215.70208395831287 75.42533088102937,231.80142896296456 74.84710337221622,233.81384430127218 73.69064835458994,236.4970637857914 75.42533088102937,243.87591169355437 78.31646842509508,247.22993071377277 84.67697102203965,253.26716061402112 86.98988105356693,255.27956934133545 90.45924610644579,257.96278001368046 100.28911375254393,259.9751872951165 103.18025130033493,260.6459895852022 110.11898140236735,259.9751872951165 113.01011895015836,259.9751872951165 115.32302898168564,259.3043849351816 81.78583347424865,251.92555445153266 89.88101859763265,256.62117481511086 92.19392863288522,258.6335825086571 93.92861115932465,259.9751872951165 96.24152119457722,261.3167918054387 97.97620372101665,261.98759395675734 102.60202379152179,261.98759395675734 104.91493382677436,260.6459895852022 107.80607137084007,261.3167918054387 109.5407538972795,259.9751872951165 110.6972089111805,259.3043849351816 115.32302898168564,257.29197744838893 118.21416652575135,253.26716061402112 118.7923940345645,252.5963575677015 120.52707656100392,251.2547512673773 121.68353157863021,249.91314468951896 125.15289663150907,246.55912704579532 125.73112414032221,244.54671563440934 126.8875791579485,241.19269523443654 128.62226168438792,237.83867311710492 128.62226168438792,237.83867311710492 129.20048919320107,235.82625901838765 128.62226168438792,231.80142896296456 128.62226168438792,229.78901300672442 128.62226168438792,227.1057907664217 129.20048919320107,221.06853669974953 128.04403417557478,217.04369755694643 126.8875791579485,213.01885593496263 127.46580666676164,210.33562680892646 127.46580666676164,206.98158885445446 127.46580666676164,204.96916525391862 128.04403417557478,202.95674103545025 127.46580666676164,200.94431619532406 128.04403417557478,200.2735077785328 128.62226168438792,198.26108211418614 129.20048919320107,196.24865582818165 128.62226168438792,190.8821827066131 128.62226168438792,189.54056373704225 128.62226168438792,185.51570517895743 128.62226168438792,183.50327496789396 127.46580666676164,178.8076020698063 127.46580666676164,176.79516979539767 127.46580666676164,174.78273689979687 126.30935164913535,170.7578692524694 125.15289663150907,168.7454344970174 124.57466912269592,166.0621871938929 121.10530406981707,162.70812651747838 119.37062154337764,162.03731417655945 116.47948399931192,161.36650176486 114.7448014728725,160.695689285174 113.01011895015836,159.35406412091106 110.11898140236735,158.68325143354014 107.80607137084007,160.695689285174 101.4455687738955,160.02487673563883 93.92861115932465,161.36650176486 89.3027910888195,162.03731417655945 86.98988105356693,162.03731417655945 84.67697102203965,162.70812651747838 82.94228849560022,162.70812651747838 81.78583347424865,164.7205631295219 80.62937845662236,167.40381098538637 78.31646842509508,168.7454344970174 77.1600134037435,169.41624615201727 76.58178589493036,171.42868069838732 74.26887586340308,174.78273689979687 73.69064835458994,176.79516979539767 73.69064835458994,180.1492232424207 73.69064835458994,182.16165448492393 73.69064835458994,185.51570517895743 73.69064835458994,190.21137325791642 73.69064835458994,197.59027342265472 74.26887586340308,200.94431619532406 75.42533088102937,204.96916525391862 77.1600134037435,213.01885593496263 77.1600134037435,220.39773034816608 77.1600134037435,223.75176141783595 78.89469593018293,233.14303925679997 77.1600134037435,235.82625901838765 76.00355838984251,241.86349945282564 77.73824091628194,247.22993071377277 84.67697102203965,253.26716061402112 88.14633607491851,255.95037211151794 92.77215614169836,257.96278001368046 95.08506617695093,259.9751872951165 101.4455687738955,261.3167918054387 104.33670631796122,261.98759395675734 107.22784385830164,261.3167918054387 108.96252638474107,261.3167918054387 113.01011895015836,261.3167918054387 115.32302898168564,261.3167918054387 118.21416652575135,259.9751872951165 118.7923940345645,259.9751872951165 119.94884905219078,258.6335825086571 121.10530406981707,255.95037211151794 122.26175908744335,255.27956934133545 123.41821410506964,253.26716061402112 125.15289663150907,247.90073431050405 126.30935164913535,245.21751950634643 126.30935164913535,242.5343036018312 126.30935164913535,240.52189094899222 126.8875791579485,238.50947767868638 126.8875791579485,237.16786848381162 126.8875791579485,232.47223414340988 126.8875791579485,229.11820755107328 127.46580666676164,227.77659642882645 127.46580666676164,225.09337336430326 128.04403417557478,224.4225674243644 127.46580666676164,221.06853669974953 127.46580666676164,219.05611743824556 128.04403417557478,216.37289079185575 128.04403417557478,215.0312770549208 128.62226168438792,210.33562680892646 129.20048919320107,208.32320424309 129.20048919320107,204.96916525391862 129.20048919320107,202.95674103545025 129.7787167020142,199.60269929282367 129.20048919320107,197.59027342265472 128.62226168438792,196.24865582818165 128.62226168438792,194.2362289261073 128.62226168438792,192.22380140097812 128.62226168438792,189.54056373704225 128.62226168438792,187.52813476789743 129.20048919320107,184.8448951765895 129.20048919320107,183.50327496789396 128.62226168438792,178.8076020698063 128.04403417557478,177.46598062245175 128.04403417557478,174.11192579753697 127.46580666676164,172.7703033857979 126.8875791579485,170.08705773577094 126.30935164913535,168.7454344970174 126.8875791579485,167.40381098538637 125.73112414032221,163.37893879134208" stroke="#4dd2ff" stroke-linecap="round" stroke-linejoin="round" stroke-width="0.5"><title>2023-03-07 1.3km</title></polyline></svg>