<?xml version="1.0" encoding="utf-8" ?>
<svg baseProfile="full" height="200mm" version="1.1" viewBox="0,0,200,200" width="200mm" xmlns="http://www.w3.org/2000/svg" xmlns:ev="http://www.w3.org/2001/xml-events" xmlns:xlink="http://www.w3.org/1999/xlink"><defs /><rect fill="#1a1a1a" height="200" width="200" x="0" y="0" /><text alignment-baseline="middle" fill="#e1ed5e" style="dominant-baseline: central; font-size:9.0px; font-family:Arial;" text-anchor="middle" x="100.0" y="100.0">2023</text><line stroke="#e1ed5e" stroke-width="0.3" x1="100.0" x2="100.0" y1="15.0" y2="10.0" /><path d="M 100.0 14.0 a86.0,86.0 0 0,1 42.46469731375804,11.215312516191453" fill="none" id="id1" stroke="none" /><text fill="#e1ed5e" style="font-size:6.75px; font-family:Arial;" text-anchor="middle"><textPath startOffset="22.20632615414155" xlink:href="#id1">January</textPath></text><line stroke="#e1ed5e" stroke-width="0.3" x1="143.23703022742887" x2="145.7803849466894" y1="26.81831364943548" y2="22.513508569990506" /><path d="M 143.74570117128098 25.957352633546492 a86.0,86.0 0 0,1 28.547481713284135,27.462654790039103" fill="none" id="id2" stroke="none" /><text fill="#e1ed5e" style="font-size:6.75px; font-family:Arial;" text-anchor="middle"><textPath startOffset="19.985693538727396" xlink:href="#id2">February</textPath></text><line stroke="#e1ed5e" stroke-width="0.3" x1="172.23445277983987" x2="176.4835382374775" y1="55.19839476539836" y2="52.563006222186495" /><path d="M 173.08426987136738 54.67131705675599 a86.0,86.0 0 0,1 12.851231095245387,41.99856678651699" fill="none" id="id3" stroke="none" /><text fill="#e1ed5e" style="font-size:6.75px; font-family:Arial;" text-anchor="middle"><textPath startOffset="22.20632615414155" xlink:href="#id3">March</textPath></text><path d="M 118.89224826269711 90.83032412892265 l 15.283488106349148 -7.418102396600618 a37.98862124668649,37.98862124668649 0 0,0 0.2804678310260814,0.5907367803554469 l -15.408914131216985 7.153923200604631" fill="#ff2e04" stroke="none" /><path d="M 119.04729006885535 91.15688171328212 l 19.821113189826537 -9.202382484774828 a42.853154726034546,42.853154726034546 0 0,0 0.30486485842289324,0.6717293041664912 l -19.976580365212776 8.859831171766274" fill="#ff840c" stroke="none" /><path d="M 119.85752413597 93.16781622104841 l 58.963069026365865 -20.286845479866326 a83.35542966359833,83.35542966359833 0 0,0 0.45513138781166945,1.3607849193404151 l -59.3035377079493 19.268887457603597" fill="#4cd9ff" stroke="none" /><path d="M 119.97218684219823 93.5106431181261 l 52.740633674388846 -17.136470672613417 a76.45478399100855,76.45478399100855 0 0,0 0.3959065951765962,1.2551320979430607 l -53.02779575333365 16.226088408243935" fill="#41ffcf" stroke="none" /><path d="M 120.6074358757038 95.95851677861258 l 59.81741861186839 -11.731255413081218 a81.95691858152318,81.95691858152318 0 0,0 0.2595859576204103,1.3867185655062395 l -60.01049029339866 10.699858770112415" fill="#4aeaff" stroke="none" /><path d="M 120.78858239683441 97.02765380044208 l 14.342684977051322 -2.0507134334223083 a35.48854851035646,35.48854851035646 0 0,0 0.08125863809561933,0.6054712380004332 l -14.375859614204778 1.8035238533572107" fill="#ff0000" stroke="none" /><path d="M 120.91429891909075 98.10471618934814 l 55.35459384572595 -5.016312809091989 a76.5814218424101,76.5814218424101 0 0,0 0.10767171474924654,1.3138676423933975 l -55.4327400442947 4.062731249490823" fill="#41ffd1" stroke="none" /><path d="M 120.98425023603335 99.18683210126433 l 23.72219575020968 -0.9192669671118356 a44.74000048374239,44.74000048374239 0 0,0 0.02319727596769404,0.7698046561426718 l -23.734504720633016 0.5107921635441648" fill="#ffa40f" stroke="none" /><line stroke="#e1ed5e" stroke-width="0.3" x1="184.98032266829074" x2="189.97916517819016" y1="98.17113171792111" y2="98.06355123074" /><path d="M 185.9800911702706 98.14961562048488 a86.0,86.0 0 0,1 -9.607161424134198,41.387399972396054" fill="none" id="id4" stroke="none" /><text fill="#e1ed5e" style="font-size:6.75px; font-family:Arial;" text-anchor="middle"><textPath startOffset="21.466115282336823" xlink:href="#id4">April</textPath></text><path d="M 120.89721153311464 102.0752229133903 l 48.765412696607065 4.842708399088015 a70.0052782882518,70.0052782882518 0 0,0 -0.12940208504420558,1.1981025954417357 l -48.67482831006181 -5.681407316414543" fill="#37ff76" stroke="none" /><path d="M 120.41448212921028 104.9243191809786 l 57.18863335745895 13.794867897879994 a79.8288888694477,79.8288888694477 0 0,0 -0.33371777310164086,1.333036616112114 l -56.94270427006225 -14.777232353389504" fill="#46fffa" stroke="none" /><line stroke="#e1ed5e" stroke-width="0.3" x1="174.80103733775053" x2="179.2010983576182" y1="140.37084112569926" y2="142.7455964860345" /><path d="M 175.68104954172406 140.8457921977663 a86.0,86.0 0 0,1 -30.038265399797805,32.042727171017184" fill="none" id="id5" stroke="none" /><text fill="#e1ed5e" style="font-size:6.75px; font-family:Arial;" text-anchor="middle"><textPath startOffset="22.206326154141568" xlink:href="#id5">May</textPath></text><path d="M 117.14729908036423 112.12312394758627 l 51.44189724109271 36.36937184275882 a84.0,84.0 0 0,0 -0.8448808304975888,1.1734655781954753 l -50.80823661821952 -37.24947102640542" fill="#4dd2ff" stroke="none" /><path d="M 116.27256486870786 113.27417163493432 l 47.312182120467575 38.59440911481996 a82.05711254163916,82.05711254163916 0 0,0 -0.9022531201452462,1.0868220060573988 l -46.640833000428785 -39.40309237799113" fill="#4ae9ff" stroke="none" /><line stroke="#e1ed5e" stroke-width="0.3" x1="143.8653032363475" x2="146.44561519142675" y1="172.8068346515853" y2="177.08958963109032" /><path d="M 144.38136562736335 173.6633856474863 a86.0,86.0 0 0,1 -40.68145358897372,12.25698825130547" fill="none" id="id6" stroke="none" /><text fill="#e1ed5e" style="font-size:6.75px; font-family:Arial;" text-anchor="middle"><textPath startOffset="21.466115282336833" xlink:href="#id6">June</textPath></text><line stroke="#e1ed5e" stroke-width="0.3" x1="102.19456741930631" x2="102.32365962044197" y1="184.97166512339345" y2="189.96999836594603" /><path d="M 102.22038585953345 185.97133177190398 a86.0,86.0 0 0,1 -42.740103519485714,-10.115201625700543" fill="none" id="id7" stroke="none" /><text fill="#e1ed5e" style="font-size:6.75px; font-family:Arial;" text-anchor="middle"><textPath startOffset="22.20632615414155" xlink:href="#id7">July</textPath></text><line stroke="#e1ed5e" stroke-width="0.3" x1="58.666819895761336" x2="56.23545636021788" y1="174.27360380694188" y2="178.64263932499728" /><path d="M 58.180547188652646 175.14741091055294 a86.0,86.0 0 0,1 -31.652253787137756,-30.449443065178592" fill="none" id="id8" stroke="none" /><text fill="#e1ed5e" style="font-size:6.75px; font-family:Arial;" text-anchor="middle"><textPath startOffset="22.20632615414155" xlink:href="#id8">August</textPath></text><line stroke="#e1ed5e" stroke-width="0.3" x1="26.63291911575756" x2="22.317208475507996" y1="142.92168965132927" y2="145.44649492493687" /><path d="M 25.769776987707644 143.4266507060508 a86.0,86.0 0 0,1 -11.730757126820373,-40.83630448921669" fill="none" id="id9" stroke="none" /><text fill="#e1ed5e" style="font-size:6.75px; font-family:Arial;" text-anchor="middle"><textPath startOffset="21.46611528233685" xlink:href="#id9">September</textPath></text><line stroke="#e1ed5e" stroke-width="0.3" x1="15.007084014347285" x2="10.007500721073583" y1="101.09737516637583" y2="101.16192664675087" /><path d="M 14.007167355692545 101.11028546245083 a86.0,86.0 0 0,1 10.666146001902534,-42.60595125391555" fill="none" id="id10" stroke="none" /><text fill="#e1ed5e" style="font-size:6.75px; font-family:Arial;" text-anchor="middle"><textPath startOffset="22.20632615414155" xlink:href="#id10">October</textPath></text><line stroke="#e1ed5e" stroke-width="0.3" x1="26.266209847984243" x2="21.928928074336255" y1="57.711370442889674" y2="55.22380399835377" /><path d="M 25.398753493254645 57.213857153982495 a86.0,86.0 0 0,1 29.58750427330803,-30.492523968695096" fill="none" id="id11" stroke="none" /><text fill="#e1ed5e" style="font-size:6.75px; font-family:Arial;" text-anchor="middle"><textPath startOffset="21.46611528233685" xlink:href="#id11">November</textPath></text><line stroke="#e1ed5e" stroke-width="0.3" x1="56.762969772571076" x2="54.21961505331055" y1="26.818313649435495" y2="22.513508569990535" /><path d="M 56.25429882871897 25.957352633546506 a86.0,86.0 0 0,1 42.265352541879196,-11.944610805530505" fill="none" id="id12" stroke="none" /><text fill="#e1ed5e" style="font-size:6.75px; font-family:Arial;" text-anchor="middle"><textPath startOffset="22.20632615414155" xlink:href="#id12">December</textPath></text></svg>